<mxfile host="Electron" modified="2023-10-19T13:18:55.820Z" agent="Mozilla/5.0 (Macintosh; Intel Mac OS X 10_15_7) AppleWebKit/537.36 (KHTML, like Gecko) draw.io/22.0.3 Chrome/114.0.5735.289 Electron/25.8.4 Safari/537.36" etag="SaOUKbMH9KZRwx2I24Lb" version="22.0.3" type="device">
  <diagram name="Page-1" id="USnipjt44XRqNGhVotx1">
    <mxGraphModel dx="1754" dy="1074" grid="0" gridSize="10" guides="1" tooltips="1" connect="1" arrows="1" fold="1" page="0" pageScale="1" pageWidth="850" pageHeight="1100" math="0" shadow="0">
      <root>
        <mxCell id="0" />
        <mxCell id="1" parent="0" />
        <mxCell id="yvs1PtUblJPzgUG7Wqlh-15" value="&amp;nbsp; &amp;nbsp;Client" style="rounded=0;whiteSpace=wrap;html=1;align=left;horizontal=1;labelPosition=center;verticalLabelPosition=middle;verticalAlign=top;fontFamily=Amazon Ember;fontSize=14;fontColor=#000000;" parent="1" vertex="1">
          <mxGeometry x="-527" y="-173" width="246" height="383" as="geometry" />
        </mxCell>
        <mxCell id="jwP6ZeQtoe26_wphTJIZ-7" value="Website" style="edgeStyle=none;curved=1;rounded=0;orthogonalLoop=1;jettySize=auto;html=1;fontSize=14;startSize=8;endSize=8;fontFamily=Amazon Ember;fontColor=#000000;" parent="1" source="jwP6ZeQtoe26_wphTJIZ-1" target="jwP6ZeQtoe26_wphTJIZ-4" edge="1">
          <mxGeometry relative="1" as="geometry" />
        </mxCell>
        <mxCell id="jwP6ZeQtoe26_wphTJIZ-9" value="POST /register" style="edgeStyle=none;curved=1;rounded=0;orthogonalLoop=1;jettySize=auto;html=1;fontSize=14;startSize=8;endSize=8;fontFamily=Amazon Ember;fontColor=#000000;" parent="1" source="jwP6ZeQtoe26_wphTJIZ-1" target="jwP6ZeQtoe26_wphTJIZ-8" edge="1">
          <mxGeometry relative="1" as="geometry" />
        </mxCell>
        <mxCell id="jwP6ZeQtoe26_wphTJIZ-1" value="Web Client" style="sketch=0;outlineConnect=0;gradientColor=none;fontColor=#000000;strokeColor=none;fillColor=#879196;dashed=0;verticalLabelPosition=bottom;verticalAlign=top;align=center;html=1;fontSize=14;fontStyle=0;aspect=fixed;shape=mxgraph.aws4.illustration_devices;pointerEvents=1;fontFamily=Amazon Ember;" parent="1" vertex="1">
          <mxGeometry x="-462" y="81" width="100" height="73" as="geometry" />
        </mxCell>
        <mxCell id="jwP6ZeQtoe26_wphTJIZ-2" value="User" style="sketch=0;outlineConnect=0;fontColor=#000000;gradientColor=none;fillColor=#232F3D;strokeColor=none;dashed=0;verticalLabelPosition=bottom;verticalAlign=top;align=center;html=1;fontSize=14;fontStyle=0;aspect=fixed;pointerEvents=1;shape=mxgraph.aws4.user;fontFamily=Amazon Ember;" parent="1" vertex="1">
          <mxGeometry x="-451" y="245" width="78" height="78" as="geometry" />
        </mxCell>
        <mxCell id="jwP6ZeQtoe26_wphTJIZ-3" value="AWS Cloud" style="points=[[0,0],[0.25,0],[0.5,0],[0.75,0],[1,0],[1,0.25],[1,0.5],[1,0.75],[1,1],[0.75,1],[0.5,1],[0.25,1],[0,1],[0,0.75],[0,0.5],[0,0.25]];outlineConnect=0;gradientColor=none;html=1;whiteSpace=wrap;fontSize=14;fontStyle=0;container=1;pointerEvents=0;collapsible=0;recursiveResize=0;shape=mxgraph.aws4.group;grIcon=mxgraph.aws4.group_aws_cloud_alt;strokeColor=#232F3E;fillColor=none;verticalAlign=top;align=left;spacingLeft=30;fontColor=#000000;dashed=0;fontFamily=Amazon Ember;" parent="1" vertex="1">
          <mxGeometry x="-244" y="-173" width="1176" height="547" as="geometry" />
        </mxCell>
        <mxCell id="jwP6ZeQtoe26_wphTJIZ-6" value="" style="edgeStyle=none;curved=1;rounded=0;orthogonalLoop=1;jettySize=auto;html=1;fontSize=14;startSize=8;endSize=8;fontFamily=Amazon Ember;fontColor=#000000;" parent="jwP6ZeQtoe26_wphTJIZ-3" source="jwP6ZeQtoe26_wphTJIZ-4" target="jwP6ZeQtoe26_wphTJIZ-5" edge="1">
          <mxGeometry relative="1" as="geometry" />
        </mxCell>
        <mxCell id="jwP6ZeQtoe26_wphTJIZ-4" value="Amazon CloudFront" style="sketch=0;points=[[0,0,0],[0.25,0,0],[0.5,0,0],[0.75,0,0],[1,0,0],[0,1,0],[0.25,1,0],[0.5,1,0],[0.75,1,0],[1,1,0],[0,0.25,0],[0,0.5,0],[0,0.75,0],[1,0.25,0],[1,0.5,0],[1,0.75,0]];outlineConnect=0;fontColor=#000000;gradientColor=#945DF2;gradientDirection=north;fillColor=#5A30B5;strokeColor=#ffffff;dashed=0;verticalLabelPosition=bottom;verticalAlign=top;align=center;html=1;fontSize=14;fontStyle=0;aspect=fixed;shape=mxgraph.aws4.resourceIcon;resIcon=mxgraph.aws4.cloudfront;fontFamily=Amazon Ember;" parent="jwP6ZeQtoe26_wphTJIZ-3" vertex="1">
          <mxGeometry x="265" y="78" width="78" height="78" as="geometry" />
        </mxCell>
        <mxCell id="jwP6ZeQtoe26_wphTJIZ-5" value="Amazon S3" style="sketch=0;points=[[0,0,0],[0.25,0,0],[0.5,0,0],[0.75,0,0],[1,0,0],[0,1,0],[0.25,1,0],[0.5,1,0],[0.75,1,0],[1,1,0],[0,0.25,0],[0,0.5,0],[0,0.75,0],[1,0.25,0],[1,0.5,0],[1,0.75,0]];outlineConnect=0;fontColor=#000000;gradientColor=#60A337;gradientDirection=north;fillColor=#277116;strokeColor=#ffffff;dashed=0;verticalLabelPosition=bottom;verticalAlign=top;align=center;html=1;fontSize=14;fontStyle=0;aspect=fixed;shape=mxgraph.aws4.resourceIcon;resIcon=mxgraph.aws4.s3;fontFamily=Amazon Ember;" parent="jwP6ZeQtoe26_wphTJIZ-3" vertex="1">
          <mxGeometry x="444" y="78" width="78" height="78" as="geometry" />
        </mxCell>
        <mxCell id="jwP6ZeQtoe26_wphTJIZ-11" value="" style="edgeStyle=none;curved=1;rounded=0;orthogonalLoop=1;jettySize=auto;html=1;fontSize=14;startSize=8;endSize=8;fontFamily=Amazon Ember;fontColor=#000000;" parent="jwP6ZeQtoe26_wphTJIZ-3" source="jwP6ZeQtoe26_wphTJIZ-8" target="jwP6ZeQtoe26_wphTJIZ-10" edge="1">
          <mxGeometry relative="1" as="geometry" />
        </mxCell>
        <mxCell id="jwP6ZeQtoe26_wphTJIZ-8" value="Amazon API Gateway" style="sketch=0;points=[[0,0,0],[0.25,0,0],[0.5,0,0],[0.75,0,0],[1,0,0],[0,1,0],[0.25,1,0],[0.5,1,0],[0.75,1,0],[1,1,0],[0,0.25,0],[0,0.5,0],[0,0.75,0],[1,0.25,0],[1,0.5,0],[1,0.75,0]];outlineConnect=0;fontColor=#000000;gradientColor=#FF4F8B;gradientDirection=north;fillColor=#BC1356;strokeColor=#ffffff;dashed=0;verticalLabelPosition=bottom;verticalAlign=top;align=center;html=1;fontSize=14;fontStyle=0;aspect=fixed;shape=mxgraph.aws4.resourceIcon;resIcon=mxgraph.aws4.api_gateway;fontFamily=Amazon Ember;" parent="jwP6ZeQtoe26_wphTJIZ-3" vertex="1">
          <mxGeometry x="265" y="254" width="78" height="78" as="geometry" />
        </mxCell>
        <mxCell id="jwP6ZeQtoe26_wphTJIZ-13" value="" style="edgeStyle=none;curved=1;rounded=0;orthogonalLoop=1;jettySize=auto;html=1;fontSize=14;startSize=8;endSize=8;fontFamily=Amazon Ember;fontColor=#000000;" parent="jwP6ZeQtoe26_wphTJIZ-3" source="jwP6ZeQtoe26_wphTJIZ-10" target="jwP6ZeQtoe26_wphTJIZ-12" edge="1">
          <mxGeometry relative="1" as="geometry" />
        </mxCell>
        <mxCell id="yvs1PtUblJPzgUG7Wqlh-3" style="rounded=0;orthogonalLoop=1;jettySize=auto;html=1;strokeColor=default;fontFamily=Amazon Ember;fontSize=14;fontColor=#000000;" parent="jwP6ZeQtoe26_wphTJIZ-3" source="jwP6ZeQtoe26_wphTJIZ-10" target="yvs1PtUblJPzgUG7Wqlh-2" edge="1">
          <mxGeometry relative="1" as="geometry" />
        </mxCell>
        <mxCell id="jwP6ZeQtoe26_wphTJIZ-10" value="AWS Lambda" style="sketch=0;points=[[0,0,0],[0.25,0,0],[0.5,0,0],[0.75,0,0],[1,0,0],[0,1,0],[0.25,1,0],[0.5,1,0],[0.75,1,0],[1,1,0],[0,0.25,0],[0,0.5,0],[0,0.75,0],[1,0.25,0],[1,0.5,0],[1,0.75,0]];outlineConnect=0;fontColor=#000000;gradientColor=#F78E04;gradientDirection=north;fillColor=#D05C17;strokeColor=#ffffff;dashed=0;verticalLabelPosition=bottom;verticalAlign=top;align=center;html=1;fontSize=14;fontStyle=0;aspect=fixed;shape=mxgraph.aws4.resourceIcon;resIcon=mxgraph.aws4.lambda;fontFamily=Amazon Ember;" parent="jwP6ZeQtoe26_wphTJIZ-3" vertex="1">
          <mxGeometry x="444" y="254" width="78" height="78" as="geometry" />
        </mxCell>
        <mxCell id="jwP6ZeQtoe26_wphTJIZ-12" value="Amazon DynamoDB" style="sketch=0;points=[[0,0,0],[0.25,0,0],[0.5,0,0],[0.75,0,0],[1,0,0],[0,1,0],[0.25,1,0],[0.5,1,0],[0.75,1,0],[1,1,0],[0,0.25,0],[0,0.5,0],[0,0.75,0],[1,0.25,0],[1,0.5,0],[1,0.75,0]];outlineConnect=0;fontColor=#000000;gradientColor=#4D72F3;gradientDirection=north;fillColor=#3334B9;strokeColor=#ffffff;dashed=0;verticalLabelPosition=bottom;verticalAlign=top;align=center;html=1;fontSize=14;fontStyle=0;aspect=fixed;shape=mxgraph.aws4.resourceIcon;resIcon=mxgraph.aws4.dynamodb;fontFamily=Amazon Ember;" parent="jwP6ZeQtoe26_wphTJIZ-3" vertex="1">
          <mxGeometry x="671" y="78" width="78" height="78" as="geometry" />
        </mxCell>
        <mxCell id="jwP6ZeQtoe26_wphTJIZ-14" value="Amazon Simple Notification Service (SNS)" style="sketch=0;points=[[0,0,0],[0.25,0,0],[0.5,0,0],[0.75,0,0],[1,0,0],[0,1,0],[0.25,1,0],[0.5,1,0],[0.75,1,0],[1,1,0],[0,0.25,0],[0,0.5,0],[0,0.75,0],[1,0.25,0],[1,0.5,0],[1,0.75,0]];outlineConnect=0;fontColor=#000000;gradientColor=#FF4F8B;gradientDirection=north;fillColor=#BC1356;strokeColor=#ffffff;dashed=0;verticalLabelPosition=bottom;verticalAlign=top;align=center;html=1;fontSize=14;fontStyle=0;aspect=fixed;shape=mxgraph.aws4.resourceIcon;resIcon=mxgraph.aws4.sns;fontFamily=Amazon Ember;" parent="jwP6ZeQtoe26_wphTJIZ-3" vertex="1">
          <mxGeometry x="872" y="418" width="78" height="78" as="geometry" />
        </mxCell>
        <mxCell id="jwP6ZeQtoe26_wphTJIZ-20" value="Amazon Bedrock" style="shape=image;verticalLabelPosition=bottom;labelBackgroundColor=default;verticalAlign=top;aspect=fixed;imageAspect=0;image=data:image/png,iVBORw0KGgoAAAANSUhEUgAAAFAAAABQCAIAAAABc2X6AAAAAXNSR0IArs4c6QAAAERlWElmTU0AKgAAAAgAAYdpAAQAAAABAAAAGgAAAAAAA6ABAAMAAAABAAEAAKACAAQAAAABAAAAUKADAAQAAAABAAAAUAAAAAAx4ExPAAAdn0lEQVR4AaVbB5hV1bW+d2ZEYWjSpTcpFmDAAoiAKAL22DWaYizBEmvM0xh9xoImL8/EPMVEo0aNMcYWK1joTZSqCChVigyiAtIUmXl/WfvcO0S/mPf2Hc7Ze61//avsffY5586Q7/Hbn+fU8vl8Dv944rlaR2hC5GE2CDlM+EEjh44ZRB2S4RM8u5FQTlMjAk9Bzt6p4oiaRO9RWFJuXXKgUYITZQcFfFl1NcgLVtXVVRgRmLxmAAEJRjMlVQzNMp4plwE6VFZXK9Ri/mAgicXkAAwl5idxpRjktSAVnWjBn6GzgEzhmHjM50uEEr96GNMMR7YqZEunFLGHCKyNsXHS2CCAoZbMdqIgExpjx6kKn0QnO+oksDmDzSTsVFVVmZ88KI+iKSqKWGFDc+PRtwVFUXHaisCoMqrUYMIyV8WcAJNVHR34xhFNjHDPmcQRVolAeI6BLEFu2WozMx0zapqpn/DyS5I048IVz7D6gJXQHfmVvfEUKFTQKyjHA5MqTa+1dEurfL5MtSEWjdK0ZmhtaqUIUjEToA6dQFTAM2TSpIqQOAQRQz6HGSsxpForWHgZOm4FrSIqOk2N8HTEAOwOFlSJFhLbRocIJ6KIoRU/D4qb13C+pEQDOgnHipQAObEJmGQF38bTfYZHIhEFYSQqIYwfVxpi41nIVIlCNDmUoiT4NZNkEX8NvKaRsGJ8CoPJKivzy7kmFgZoSiB8YITQHX0ccT3LWEcwwLwmgFelAtZR16eHKlPAKclosw6EcT0zkGiiNx7h2JuGXGg5XFOZN7mJgGCc0WYd1ijwyAuA9FNVHbs0fWoV2TksWS1xscxYijip1LAVhlr+A0bhuX42pGPby7FwxrIbeEkzPMkzj/RrdohIljEEvgrXJw3knXOYolJAPigdTIrWl/FQYNeWkTGg40ZNEf2guWOtSyYZxfoHCDb2gNXEo0rc81PLSIvwicQYbMrumIf5kN6GXxNPuHYgRCv/LD7OKnSFi07Dam5aZoaOZYvLxua2IRl61Mo7wvJZRSwwkr0IAbyHshaJHKR8wJIA2s6IV7jFHcbG9SVzRsEc0FB9HKNi7EDOzYKxiYS1o9jXsJgBw5UPLX8IpNoVDQHHXJxU60djdWkgvNh1YPRoZE3N+DTaDc8hOKIcAlEiLo5ozMa46VMah0MYxsEQ/WRh0wzPTiJFeqkkNiaPvcSR6LRd0Lea1hJwXIEJR/8uFlc+5sSEwnutFuOBTbZm4AaJxtC5PyXmUEouQrkRUirRo8fLROY8oiU5exzzugh5tqQ5kVoEhcWjFUvbjEKriHTwLjz6mtFq7rqUaAU58H6tO1188BHltfactPL9cSsWvbd+Le2SGYJQl07JiCYGr0FuJVBb4RXmtWMXxsvOeNgCHzyiKvTthmNi8l1GXV1SolzDP5NCEHiscU+DBPBVC0RWDHRoQDAawFC1bdD4in5DD2+3L4epVW7dPG75ImS+cMNH8pzwMoYV7+RsdK2Th+KXl+CXLwActg0YT5hHh+ySFHcI7jLqKl3rqDdbeHLP1IkrZLDRgwrRwIeWXTTM53m9B57d89A9Skq3fvnFn+ZMfqdyzZEdux/RoVvz8vpE5HLrkfmKxeNXLH5vw1p4UL72yy4AyBzzIXrL5Ui2ySOvRGElMF4Wjkdh0YBqHAsVxAzffpWRdlGTCLwsBFWyCYpCCQoARHlM1x4/6Te0SZ26CPeFRXPvnTn+0x1b7RLa/Zu1QuZDijKfs+7Dy8Y8oZDpAOTk90RH5rhrOgDFmKWYcnDMDhC2NiWURGw+m9Yr2i8PvEih1ZEgNK15SNnHARcV7UUBHQwwjGiqcwc0b/XTgSMObN6a6Fzu+08/sPDjtQW8nqveXb9mwcdrfz/zDWbeofuZ+x9c0aItvZifTwhsJM/nmtauO7L3wF7NSDhv/eo/zp/68bYt0BiLOLQFEM72T/EoGSmUCHDGQ5Teh7kUZIukQcuZIzmpIWGZ/YiCPltylWtUu85l/YaeuF8FkBu2fd6kTj1o31u/hj6IrYEHFYTvVq5ZsH4tEiYPIQQajy5yaFqn3oPHnlu/1l5Qog1p1/XgfdqdP+YvG7ZjvZASH+LVMyZmIshCJtbwIH4Go/dhmaIGsb9D7KlFJCnqYAfEkurq0nzJub36P3/uFSft1/urXVUPz55y0qN325UgYinCqxv5G0ZEsNGj/hF1ce+ByPbNtctPffb+0567/821K+rV2uuingN2Z2B0bGTj+Vu9Pxe9D6veMPfdgB2/taDjcmISYw3RxQOnnFfRsh06E5cv+s3kMas2fVqs/TbvzxGnlg/vaom+V/M2UP16xmsfb9+CCfrNm68/+Z3ze2p5My9dTQBw+WnGkTG6lEQF1Qfs696fuaRRKdoSrRNwLDivaTOKyU9nBNAin3e2Fz/352kfLiFABOywsepA4QAGdQRIsZIha4LJG3p0WEoqUmDRYSNyLhDCSvHQMhg8GYyHH4ftCHUUnRxRJZ/cGwnWQGdQsYk0XsowokRhqMOkxZObsuJ9ohPeQuHddWTCI1wFmuHlIrAQOgx0Zq37EKqfHjq0WXm9JrXrXn3IkRjOrlxFrqJGvDPXHEBjfsOgYofPfIre/Ni0lLnngTXghMRkpG0zigF79jRjCo6UbPQEq3hlC5kURXjH5BlEBJpDQ0Wv+qoHqj/MnlzRok3fVh2eOvlCYz7bse3+uVPoPWxED56Ih3wIg1LGz/DSNcV8bcbwsWL81RrQYQAbd4EDgBVK80yBlMVgOknO1OeQ+58G1bm3R9709sgbMaTEnGIx1jg7DElV9ZrNn1300l/GLl1gydhl740c8/jazzdl8cS82YOo6VEeIkB6Ygt+vvMyEfzE7T5T0zCQEQaArquTpzrYhCNXwYC91LKsJbAdOPmgnyA8Oyaci9+fP9qy8ZYpLxt229SXP9qySdEEieX/t/fn9I0H8sRiQlMEvjwK0WjFxDKE02z9AOG9BKKi1cZiap1nqTkrgoR3xAV+9uhfs0Amlj0RpopAmgD/j/fnuC2ZP8JyDo6MMcZXdojIFwbDzaLR17daBdxF8XsMPGknJfMmWAlkl5k6FnN643kwYMo7lIWTpoNg2OKTlYMSoDwVGMjChTMMWn6VmAwQjzYtmOmWRWhYhTOaudwKk+4YfWHTYkqRFE3IoDc7U+EYRLTCLhjf+2f1ghYrHz6I1z2MkqqqkhIg+VaMJnekTnHDHwPAifFgtgMPFmj4Y7+MTGGDxGfI+XQuTp/lQYeizMVBvyoGD9ElECM1Kov6RBTVLvUzRFjZBJb8MV5HXs8JCyi6WFw6Uxo9IpMRqpwpjBcluzXtyrBXYHopZQWh1izioMmRhH100oMLX0oGdepGB7ncwA5dJy1fxLnREwLxLKfweENq3lIoHMhMrScmSWdedEPqfuM541SITJH8OV4LmYrhZ9mTiRjEAQBV6hjPa1hBRqByK/MElSSJc9Wdmza//siTDuvQxfLRp/xw2or375jw4rJP1jMduqGmVmnZJf2P+n7vw9Cfv24Vd/hURBt+y+O0VUtRKxaf8SgNO8AgKZi96OjdHWAgVGmyEjshJMyOahBVykKBEJeHWXBssFedywcOO7N3f7w2bN6x/Z6pr8EMWfVv3+XZ713x5Lw375n++ka80OTyB7Zoc8uwUzs2aoqV+dCsyffOeMMB0IGqm7k4aPTNiV83yFQUC3klI0mGzCMa16Ny0XbA2L3uoGR6QoLcqRJvIbYPblJ0610acq0TfpEUa47aFFxZSel3+xx22cDhDfaqvauq6i9zpt49eeymHduQwPMLZl024OgzevY9q6Lfsd17jZ7xRtPy+j84aAB+b7Ls0/U3vPr0gso19ON15SnyjEloD8xB78MqORURD9SaM2QioWwEMh7RciY1/0qvMD3Ec+KpYyF0NwE8vQ+jqwZPwaqTi/TYORf3adMRginLFt/++nNLPqlkvXX3+Wzb1lteffbxOdOvG3L8Ye27/GzwcYBhYh98a+I909/4ctdXjEnZio+JZVklCT3KEc7h3VYMxjELCiLKFWKr+ntfWHF4nxZtd1VXz6lcdd+cyRu2b6F9UfwMkvnyQ371mDAHGLGDH/4GDE1QWkPrbC/42/3jl7xnr7yTMHIT5ZduqLzg7w8M6tgdlzRsz3589LuVqzUtwRBxwAVfxYoa9PKusjgkesziRj9DWwhJi/IGo4ef3ah2uVVHte92SMv257346MfbP4dWa5fOM3wwiF6/4GMIEYZA6GMJSIKxO7nc+A8WZM4Hd97vxqNPphmxqlZV9cRlC039zkerZFa0dokiIXcv4Y2UJeW460jPJSrSOJInNZpjhVRXXVAxANnOWLP85KfuO/mpP6CDLwxG9j6cnATrYHfAi9piVKFMUfCAUgKjgrrAupgpJQ8amXK5zk1a3HD0SQM68rb06uL5M1YuwW0KLkBA+2gQiISrSoasPCU4AmIqdGZfcnMy+bfPd057BV90gfBX08c+c+qP8bUBq4mbD0PmEmRMclfwWM3XQy1LhQq1QkFMFiKDCBE2DWuXXzn4mLP6cJfGjnXPlFffWrWMtAXbCFqJ6/buZL/u98//dn7/ZKBVa/ex8lxcRu9Us7rK1r9/9n040svylKXeh4vmbdylN+DOhF36sVlTfjdpDO5A4GGNeERmVdnNuV+7ztNXfhCxeGJxuasMrmlW+Irf30gS7X9MgCsCASc9zu5SSKlH/zn4hGGd9r+237A7p42B5Np+R0OLL33pwnOWftsWlYA6Lauy7E4roQGyw5gvJYUZRraTly669dVnlmyotGMfkWvzeg2vP+rE4d16iiT3p9MvGLN4/p0TXqzkS6wWgNiYkFpWenRAwqWIE5TZghEyomEgcbEZ/8dZkw5u2b5v647Pnn6xCTd/sePetycybk+v5hiq4KcXFgwS34dtRXfKteCaUaSIf/T4fdilAVVoNAG6tKT0/L6DLxlwdO09am3f+eW9fBrJXdx/6PCuPQZ17DZ6+hsPvz0Zi0Lxi52+Szy0V8eEfhQ3pQY/St8Vr7FA1n6+8cIXH7mozyCkDfLZ61aNnjVhPa5nVUzhCa8VAxIX2u8YcR/msuSPE4w5ob2LptDGvf8u1KGLwuT7t9/3miN4731l4bw73vjHOkxpPvfCgjn/MeSE4d16XDVwxMLKNdNWfkAeT2Ja4Vm27MiTfFvMCZKYEcnWcu9E7K/e9NmN4/+h3NIEYG44LsLHzgUxqkklqNIMKwFTy7FWmrNiONGyFc7wVY5JSxf+eeakcUsWTF/xAUFwmCtZt3njFc890r9Dl8Gduk9Z/r7CiPnS2izEDY/6TVXwc0oRHZrOKR4uMoYLqbbhQMd82EBGLCsJhOdsoa8SKFzha2xargFNnWN4pQCN7kkmoqL351tefQZaZkU7huXZxEsFq5CmFHJqC8mSc/4Vt/H0r9rM1cuuGfvk9p07sb2x6Cl/O/Vaxa6pB2zlDMJYGpwX/Cgwhpd+86DaFPwiOhBjnP6xS0N9mDJ70oYRJakrBTGyJk5dATJUQn+b8yGtO147YITdAw/f/LFHHeP92RK5/6b3Z13DSBwfMmgOFQKKx+JAkkIc0uUAXMYY8i4CIa8IaGmKn16t22OX/tW4FwjwrGoVAIhnAcUAAz9IV/drG786PvCu6+HNE8WjPlmHgeRznRo1e/S0C4/r2nPW2pUvLp5nPFwD5lsM8YxH0boXnPBIIQA4+324tLxfRRiYCQPGRwsLcBzYuXvLho1O6nEwHqrfXbvq0218TEcTMr9nWdk1Q44fdfyZB7XpuGDd6uWffmwGVYJx6B/LBnnzeg3w5ojNjPa5HLZxJlnki1ImEHhoN+7Y9vHWLYM7dOvbpmO3Ji2uG3jsmQce0q3JPviN3NadXxCucsrOzsDHDsSJ2EMyl5b37+U5yQwE5QFmnN987qm5b27avq2idYeuzVueffCAJuV1565ZiSsKiF6t2j90zsihXXsA+cCMcX+bPX2XvotKLpmOqHJlJWXnHTLotyee261ZS9zA9igthfzeaa9RrUWBM5oMOSceOJfFG9a1adioe9OWHfZuivrW2aNW50bNjuvaY8wH727b+SVnN2XGgGmT6sXwKQjC6pwSpjBEmSVhaogYq2LWquVPzJpap9aePVq1q2jT4aw+h325a+ewbr3uPOHsJuX18ChywRN/fGbeTGQLBjSudp6VcD6HLwnuO/U8vDAjz7GL54985uEfHMRnfXxnoGA5pYyMJo5QhhboOGzfA7C2p3645MfPP/L4/Bkd9m7SuXHzxnXqjl+xKOKMGtEwSJhXotBsQ569D0PDSjHQogYEJFTk859t3XLDC399ZObEm0achkV+4/BTAcR9f/SU13474WW/+gYeX77q+RmWLeo3vG7oiSP0EIavgW59/Tlu3XqWtB/Ro9xf//vndNnnsG8Bf9uEFyq3bEZqt0188aVzr+jTsp3MVTQkAH+MNRLAGfFIyg6VuA/jXwxQA/bjMQjoAhewZKHN+5Vrz/nz3UO6HvjwOXysO/mB38xbsxIMrK8M1GN3j9Ky8w4dfOnh8RB2z5TXHnprohY8LxW3BVffEb2ap8nLF1/6/KNgyd6fd+76ihBEoIOnU33HH4z2TmRR/Fn4EBbuw6oN51Ngj1AefsCix10XjKpxi98xbO7qFfbtN7MsZ6zhm0ac0qlxc8DwEDZKD2FC4hAuzPC1x8M7dEUk9mv+t9esGN7lwJ8PPv7WCS9Aft1APt7NWrtCZLx8WAutx4yQ5syHs8i7t8LHDAPAf1IXvSHZDyc2WtTC1EkoW5eJ0waSFvUa3jDsO8fsVwHI0k8qfznm6akr+LClvQAA3qZYRrX9fn0tzlR6CQn3zlWjrHXO6KNz19Sx/dp2Pqzdvq98/yprN3+x/XfTX5NSAgUmKpedQg6dIAvCALmkfYOy2lKwAIo+milCCwsXPgIOFuNLS0ou6D/kskEjsIti8/yfSWMfnDHhq+pd4VVJacUwFDc8HiT+wvtz6BheIXRcuqf/9Z4rDxt2UKv2kGPC757+Ov4CCmBehpo3x2xz3vztjHNGIv/9tpY0i+BZ4gw4SaxhhgK0ChO+kS1/CZJFSXINcazq36Hbz446EZKX35tz69hn8CLBHPXLjQhFOzedMQg2dbLiKY6kA60ADIzmVVV42bxu7N8prPn+nAJQoDDHOd6HETXTRoz6x2PapdFFUzGiLorJHHxMBYdCqfn+HFS6hnKTlix8cMZ4PI3hy02iESXLQdugdzJMJSQua7yTWEaXbAgjM3TOFEbyqhzwhQVD4yBgxxElvEpgrRaDXWhu+QiqIajJLic46ByheOgjYrUUZmi/fOWpKUt1Y8QYVDUbAH5CZ6SpARiBVlW3rt9o1DFnWDNq+Okt6zfkr+aEJbtc+QiMXRfqo/ThweSC0zLh4RoqfolnKdY0lwp8J4QKpZw5V1rhBpMF/9SK8dHnvHBbEldCusYgEn/x1JEG4urqtns3/ut3L2lcXtfMx+9XgZftc564b/XGT0VJccQmFpKlOHwWLK5NkRR2RyC14qr1LbRSNl0wum44QqXdSzlCmXmIDiTwjkCciaR2ya7n89B2na8/+jvF/BmPHcAcP1cOHIFsJy1bdMR9tx/xh9txK8aD1E/6D6WhMqN7IJ0n6GnEgPhDbxqqpwOzRWN4qWHI3+jQSsqg8NhyKLl0yKADTbMO+oP33U9aUkjOoxrHe9cp/9UJ3338e5f9qO8Rgzp1t22oyQQuwrw4D23bCYKbxj6N7w8qN2+6aSxfs1Es4zMrLHL0aaqjOlyrWswUsrkIuqaI1nVKcfwlXpExRC6JwoA9BAxLkakrNhi/hW+kc7nHfnj5Q9+7pH2jZozaSKLZO7nnoW9c+ovTKvru3LXrv8e/NHXZ4tBIXXQQe66aX33RjkMFR54QSpSZU60WeM+WBjyg6Q9xeFIs1AdnrnTPgw8AgNeDNlXBieSYQlrjrGO6ZqR7evb0z3ds792uY/cWrc89dGB5rb3mrFqOJ2rYdmzSbPQZF5zf/0h8szdt2eIfPj761YXztWdEBKC7fBDfEO+eNMa+cDxgnzZdmu7TsXGzt1ctq7vnnr8cfkq7vZtMWLrwtfffIUYNJmgMTEfTOU7GyvSUorSG1cBjhde/+MxQ6CRjCxIrjP2sn+H0BQDV+Xyzeg2uG37yGX36Q7n+802jxj7bqmHjnwweUaus7JOtW24b+/TTc2dmdOrEYekvfodQ9r3tyiygfeo3fP5H1zSoXQcSN3zdf9LDd63fsjlSVNaeCgBMy843//128shqxKf+yDPEEzUrEAFbSJl/fo7SKUcfhPcDQD7fs3X7W084q09bvtCgYbk9OXv6bWOe2Rh/L52oeBfIV7Rud8z+vXFVA9nplsvlJwB4LL32yON9Mc/8cOl/TXyZTy9yRUs8UXG5KQDPgdOmyqAiQEGYqZhAfGuJK5DvJZhx7cm01yXJ8IWPZ0DxKqX4xsz4eatXnDD6jlMr+v58xCmYcwJyuVK94pNBywzfHxy7f+9j96/Yp8HeEube1C7gPp9nSkrWbdl49T8ek0fnAHq6R9Nq5ZWGhgO2Lqqs1QXKSFwOb+SxtIVnNsLDoN6PT48yZfYe6xiLmd7RbIwT+/5HURG+7p57XT7k2AsHHIV3wy1f7Lhr/EuzVy3Di8SxB/RpmfL8aNNnLy+c+9KC2fPWfOgEwMD3ZzXRQozppCOSU60OdAqCiuw11hKr2Md9KGA625BdMuFT96LTCsbkMYJWdCZrdbKACIJE5uoLAzTXvFr7xs1uPu70o7r1ICy1tchzwZyXFsyZu2YFZKIPAw1pSQbJHBuPClSsJOJQlpQQG7tZqABQmaStgc/+eIwJmybzsbux3egYXmjgcvCYwrKUYVh7RNcDfjHiVMz5ywtmYz7nrF6ZakIActNzXfDaaYG2QE9PIddk2MBeCnjGkWCQZuEFTzpBUX7haUXOcA0rjGRgy2AyYw0Vr/kCJvVDUgO/ezSO20jnlEUcyeBkUCHPAgk0KWycgyydqSI0lT7Fw7Peh9MbOQTYtwDFMyES171dKXlqtFHj8kdJCBOnOnAQux2GiZ0euURjI4wYdsenXRe0NNSa5iJRR+e4dSs2oDJ+Rgi/jFe3JbgiPu21xmPMdNR85tVoEI58BAuOgqXRlgeS4RAQQ/rQd0AUUyG9AHp4AsyhwYENdURfD7rE80eN70boGJYeCTGCUHgGD61+ZGCkCstxGnIbJ63Gxfjd34dlQVhxAxEKxgLG1KKnxhNvBvi4fnTB+f+m92fbASV4+v1z4lce3/D+nCwZCZ5iHQ6DcFYMRB+KWDICUoeFwxgC/b20q2Jc0UssiMylMtnYEfGIpvXzb70/gzEe/OkaUaUZJnuRa9FTxjVnZwSjGRjJ+5VAIlsQ8a/enzHDBQvUAHUwrymcs4U8Rq4UY+ANroBXCRANkf/0/kw5NUzD5Kw4ifgBs2cgdJSrCUOIWtiKhXg0GAQn8bACRpRS2pc8UcsZDvfKG1gNfQyV6EKuoirrGvhAwpbuXTL0gs2eGZsa49TcJnWGj/dn6mkTeHdiKAdQ8Cf9sZPdQkNCb0MikDcWjiP9QKIv8bwnp50ZOhaDGG026KVJc6FhFnPiC5hqfigHOTYXWLMnZ4obhNI6NwFg5WCcHG0iOCKLnnPpPjX7hYWmSzNpfq8RHAurkDb0i0WOUwqAf73J5F2Y8A0knFJEQZxw1kilhZp8aqwNDXi5hVgm7hNJeQEvtK5mmsU/EtiKIvTlrcioiEE4YaiXWRhnZKZL5qRTg95/L40OKiNjnJQBayIJPLM8KJOqDhkaJSJ1tgiS+DAQnrNdwqJBqPmPCAUyAzQIg7a6sMgZQy1Cjug8GBK7fUHleBCGHpUYN4qu6BUy7tJcZJArWsaD7V3/JR4U5KaOajeM/F1KEglQPGA0HPOfItyNA2oqZcLpRwtunqjLBAZySAjOQrOvpo5ESZLEMqmJF9i1RLkzjsQUf3rI2aFxugLYTYXBf3rSJAvgq5cqDn1hKETNQxJW4beHcbkS6L9KJpyZZEG75DhCxlmSLhFTSM7d8EV/v20qhIm0bJWYlWfEzycCcGTL838BgvUT6T0QPZ0AAAAASUVORK5CYII=;fontFamily=Amazon Ember;fontSize=14;fontColor=#000000;" parent="jwP6ZeQtoe26_wphTJIZ-3" vertex="1">
          <mxGeometry x="1061" y="253" width="78" height="78" as="geometry" />
        </mxCell>
        <mxCell id="yvs1PtUblJPzgUG7Wqlh-8" style="edgeStyle=orthogonalEdgeStyle;rounded=0;orthogonalLoop=1;jettySize=auto;html=1;fontFamily=Amazon Ember;fontSize=14;fontColor=#000000;" parent="jwP6ZeQtoe26_wphTJIZ-3" source="yvs1PtUblJPzgUG7Wqlh-2" target="yvs1PtUblJPzgUG7Wqlh-5" edge="1">
          <mxGeometry relative="1" as="geometry" />
        </mxCell>
        <mxCell id="yvs1PtUblJPzgUG7Wqlh-2" value="Amazon Simple Queue Service (SQS)" style="sketch=0;points=[[0,0,0],[0.25,0,0],[0.5,0,0],[0.75,0,0],[1,0,0],[0,1,0],[0.25,1,0],[0.5,1,0],[0.75,1,0],[1,1,0],[0,0.25,0],[0,0.5,0],[0,0.75,0],[1,0.25,0],[1,0.5,0],[1,0.75,0]];outlineConnect=0;fontColor=#000000;fillColor=#E7157B;strokeColor=#ffffff;dashed=0;verticalLabelPosition=bottom;verticalAlign=top;align=center;html=1;fontSize=14;fontStyle=0;aspect=fixed;shape=mxgraph.aws4.resourceIcon;resIcon=mxgraph.aws4.sqs;fontFamily=Amazon Ember;" parent="jwP6ZeQtoe26_wphTJIZ-3" vertex="1">
          <mxGeometry x="671" y="253" width="78" height="78" as="geometry" />
        </mxCell>
        <mxCell id="yvs1PtUblJPzgUG7Wqlh-6" style="rounded=0;orthogonalLoop=1;jettySize=auto;html=1;fontFamily=Amazon Ember;fontSize=14;fontColor=#000000;" parent="jwP6ZeQtoe26_wphTJIZ-3" source="yvs1PtUblJPzgUG7Wqlh-5" target="jwP6ZeQtoe26_wphTJIZ-12" edge="1">
          <mxGeometry relative="1" as="geometry" />
        </mxCell>
        <mxCell id="yvs1PtUblJPzgUG7Wqlh-7" style="edgeStyle=orthogonalEdgeStyle;rounded=0;orthogonalLoop=1;jettySize=auto;html=1;fontFamily=Amazon Ember;fontSize=14;fontColor=#000000;" parent="jwP6ZeQtoe26_wphTJIZ-3" source="yvs1PtUblJPzgUG7Wqlh-5" target="jwP6ZeQtoe26_wphTJIZ-20" edge="1">
          <mxGeometry relative="1" as="geometry" />
        </mxCell>
        <mxCell id="yvs1PtUblJPzgUG7Wqlh-11" style="edgeStyle=orthogonalEdgeStyle;rounded=0;orthogonalLoop=1;jettySize=auto;html=1;fontFamily=Amazon Ember;fontSize=14;fontColor=#000000;" parent="jwP6ZeQtoe26_wphTJIZ-3" source="yvs1PtUblJPzgUG7Wqlh-5" target="jwP6ZeQtoe26_wphTJIZ-14" edge="1">
          <mxGeometry relative="1" as="geometry" />
        </mxCell>
        <mxCell id="yvs1PtUblJPzgUG7Wqlh-5" value="AWS Lambda" style="sketch=0;points=[[0,0,0],[0.25,0,0],[0.5,0,0],[0.75,0,0],[1,0,0],[0,1,0],[0.25,1,0],[0.5,1,0],[0.75,1,0],[1,1,0],[0,0.25,0],[0,0.5,0],[0,0.75,0],[1,0.25,0],[1,0.5,0],[1,0.75,0]];outlineConnect=0;fontColor=#000000;gradientColor=#F78E04;gradientDirection=north;fillColor=#D05C17;strokeColor=#ffffff;dashed=0;verticalLabelPosition=bottom;verticalAlign=top;align=center;html=1;fontSize=14;fontStyle=0;aspect=fixed;shape=mxgraph.aws4.resourceIcon;resIcon=mxgraph.aws4.lambda;fontFamily=Amazon Ember;" parent="jwP6ZeQtoe26_wphTJIZ-3" vertex="1">
          <mxGeometry x="872" y="253" width="78" height="78" as="geometry" />
        </mxCell>
        <mxCell id="yvs1PtUblJPzgUG7Wqlh-10" value="Amazon Cognito" style="sketch=0;points=[[0,0,0],[0.25,0,0],[0.5,0,0],[0.75,0,0],[1,0,0],[0,1,0],[0.25,1,0],[0.5,1,0],[0.75,1,0],[1,1,0],[0,0.25,0],[0,0.5,0],[0,0.75,0],[1,0.25,0],[1,0.5,0],[1,0.75,0]];outlineConnect=0;fontColor=#000000;fillColor=#DD344C;strokeColor=#ffffff;dashed=0;verticalLabelPosition=bottom;verticalAlign=top;align=center;html=1;fontSize=14;fontStyle=0;aspect=fixed;shape=mxgraph.aws4.resourceIcon;resIcon=mxgraph.aws4.cognito;fontFamily=Amazon Ember;" parent="jwP6ZeQtoe26_wphTJIZ-3" vertex="1">
          <mxGeometry x="86" y="78" width="78" height="78" as="geometry" />
        </mxCell>
        <mxCell id="jwP6ZeQtoe26_wphTJIZ-16" value="Email notification" style="edgeStyle=none;curved=1;rounded=0;orthogonalLoop=1;jettySize=auto;html=1;fontSize=14;startSize=8;endSize=8;fontFamily=Amazon Ember;fontColor=#000000;" parent="1" source="jwP6ZeQtoe26_wphTJIZ-14" target="jwP6ZeQtoe26_wphTJIZ-2" edge="1">
          <mxGeometry relative="1" as="geometry" />
        </mxCell>
        <mxCell id="yvs1PtUblJPzgUG7Wqlh-9" value="AWS Amplify" style="sketch=0;points=[[0,0,0],[0.25,0,0],[0.5,0,0],[0.75,0,0],[1,0,0],[0,1,0],[0.25,1,0],[0.5,1,0],[0.75,1,0],[1,1,0],[0,0.25,0],[0,0.5,0],[0,0.75,0],[1,0.25,0],[1,0.5,0],[1,0.75,0]];outlineConnect=0;fontColor=#000000;fillColor=#DD344C;strokeColor=#ffffff;dashed=0;verticalLabelPosition=bottom;verticalAlign=top;align=center;html=1;fontSize=14;fontStyle=0;aspect=fixed;shape=mxgraph.aws4.resourceIcon;resIcon=mxgraph.aws4.amplify;fontFamily=Amazon Ember;" parent="1" vertex="1">
          <mxGeometry x="-451" y="-149" width="78" height="78" as="geometry" />
        </mxCell>
        <mxCell id="yvs1PtUblJPzgUG7Wqlh-13" value="Authentication" style="rounded=0;orthogonalLoop=1;jettySize=auto;html=1;entryX=0;entryY=0.5;entryDx=0;entryDy=0;entryPerimeter=0;fontFamily=Amazon Ember;fontSize=14;fontColor=#000000;" parent="1" source="jwP6ZeQtoe26_wphTJIZ-1" target="yvs1PtUblJPzgUG7Wqlh-10" edge="1">
          <mxGeometry relative="1" as="geometry" />
        </mxCell>
        <mxCell id="yvs1PtUblJPzgUG7Wqlh-14" value="React" style="shape=image;verticalLabelPosition=bottom;labelBackgroundColor=default;verticalAlign=top;aspect=fixed;imageAspect=0;image=https://upload.wikimedia.org/wikipedia/commons/thumb/a/a7/React-icon.svg/2300px-React-icon.svg.png;fontFamily=Amazon Ember;fontSize=14;fontColor=#000000;" parent="1" vertex="1">
          <mxGeometry x="-451" y="-26" width="78" height="67.8" as="geometry" />
        </mxCell>
      </root>
    </mxGraphModel>
  </diagram>
</mxfile>
